# xmcd CD database file
#
# Track frame offsets:
#        150
#        11816
#        30116
#        46103
#        72312
#        92547
#        111248
#        130155
#        148237
#        159168
#        176629
#        193411
#        214498
#        237743
#        258209
#        276340
#        289520
#        309918
#        325806
#        339357
#
# Disc length: 4783 seconds
#
# Revision: 0
# Processed by: cddbd v1.5.2PL0 Copyright (c) Steve Scherf et al.
# Submitted via: CUERipper 2.0.9
#
DISCID=2512ad14
DTITLE=Solomon Burke - The Chess Collection
DYEAR=2006
DGENRE=Soul
TTITLE0=Music to Make Love By (Part 1)
TTITLE1=Let Me Wrap My Arms Around You
TTITLE2=Come Rain or Come Shine
TTITLE3=You and Your Baby Blues
TTITLE4=All the Way
TTITLE5=Thanks I Needed That
TTITLE6=Everlasting Love
TTITLE7=Midnight and You
TTITLE8=Music to Make Love By (Part 2)
TTITLE9=Burning for Your Love
TTITLE10=Night and Day
TTITLE11=Everybody's Got to Cry Sometime
TTITLE12=I'm Going Back to My Roots
TTITLE13=Precious Flower
TTITLE14=The Do Right Song
TTITLE15=Life Has It's Ups and Downs
TTITLE16=Over and Over (Hugging and Loving
TTITLE17=I'll Never Stop Loving You
TTITLE18=I'm Leaving on That Late, Late Train
TTITLE19=Love's Paradise
EXTD=
EXTT0=
EXTT1=
EXTT2=
EXTT3=
EXTT4=
EXTT5=
EXTT6=
EXTT7=
EXTT8=
EXTT9=
EXTT10=
EXTT11=
EXTT12=
EXTT13=
EXTT14=
EXTT15=
EXTT16=
EXTT17=
EXTT18=
EXTT19=
PLAYORDER=
